<?xml version="1.0" standalone="no"?>
<!DOCTYPE svg PUBLIC "-//W3C//DTD SVG 20010904//EN"
 "http://www.w3.org/TR/2001/REC-SVG-20010904/DTD/svg10.dtd">
<svg version="1.0" xmlns="http://www.w3.org/2000/svg"
 width="300.000000pt" height="300.000000pt" viewBox="0 0 300.000000 300.000000"
 preserveAspectRatio="xMidYMid meet">
<metadata>
Created by potrace 1.10, written by Peter Selinger 2001-2011
</metadata>
<g transform="translate(0.000000,300.000000) scale(0.100000,-0.100000)"
fill="#000000" stroke="none">
<path d="M443 2742 c-100 -35 -171 -115 -193 -216 -8 -36 -10 -350 -8 -1056
l3 -1005 28 -57 c32 -64 80 -111 146 -142 46 -21 50 -21 1081 -21 l1035 0 57
28 c64 32 111 80 142 146 21 46 21 50 21 1081 0 1031 0 1035 -21 1081 -31 66
-78 114 -142 146 l-57 28 -1020 2 c-959 2 -1023 1 -1072 -15z m2130 -41 c57
-27 108 -77 134 -129 17 -35 18 -92 21 -1042 2 -702 0 -1020 -8 -1055 -16 -73
-67 -137 -137 -171 l-58 -29 -1025 0 -1025 0 -57 28 c-66 33 -111 82 -133 146
-22 65 -23 2036 -1 2099 30 85 110 154 197 171 24 5 494 8 1044 8 l1000 -2 48
-24z"/>
<path d="M452 2649 c-51 -26 -95 -76 -111 -128 -8 -28 -11 -315 -11 -1027 0
-974 1 -990 21 -1034 25 -56 53 -86 101 -111 36 -18 74 -19 1048 -19 974 0
1012 1 1048 19 48 25 76 55 101 111 17 38 21 66 21 176 0 115 -2 133 -18 148
-18 15 -23 14 -94 -18 -347 -161 -716 -176 -1108 -46 -112 38 -124 37 -257
-20 -123 -53 -219 -74 -296 -65 -32 3 -65 9 -73 12 -25 9 -15 32 24 57 89 57
131 134 132 239 0 64 -2 69 -38 110 -144 159 -235 327 -284 524 -19 74 -22
115 -22 258 1 150 4 181 27 267 44 166 110 296 223 437 71 89 74 95 58 112
-16 17 -35 19 -233 19 -200 0 -219 -2 -259 -21z m436 -61 c-383 -449 -382
-1072 2 -1516 80 -93 86 -119 50 -216 -21 -55 -85 -126 -115 -126 -23 0 -48
-46 -41 -75 8 -32 32 -44 104 -51 84 -9 182 11 298 61 146 62 142 62 286 16
197 -63 277 -75 478 -75 128 0 199 4 265 18 116 23 261 70 349 112 38 19 71
34 73 34 1 0 3 -59 3 -130 0 -174 -19 -222 -105 -261 -38 -18 -91 -19 -1033
-19 -871 0 -997 2 -1029 15 -50 21 -72 42 -94 90 -18 38 -19 91 -19 1033 0
871 2 997 15 1029 21 50 42 72 90 94 35 16 68 19 254 19 l213 0 -44 -52z"/>
<path d="M1033 2608 c-144 -138 -259 -332 -310 -523 -23 -88 -26 -119 -26
-255 0 -136 3 -167 26 -255 47 -173 143 -346 268 -481 27 -29 51 -64 55 -79
13 -54 -3 -155 -35 -217 -25 -48 -29 -64 -20 -80 15 -28 50 -21 175 33 134 58
202 59 354 7 58 -20 147 -43 199 -52 108 -18 336 -21 426 -5 33 6 76 13 95 16
106 16 358 120 405 167 l25 25 0 787 c0 560 -3 798 -11 825 -16 52 -61 103
-112 128 -43 21 -54 21 -746 21 l-703 0 -65 -62z m1503 13 c47 -22 80 -59 94
-110 7 -24 10 -297 8 -821 l-3 -785 -91 -45 c-195 -98 -351 -133 -589 -134
-194 -1 -283 13 -453 71 -139 47 -203 44 -343 -14 -53 -23 -111 -44 -130 -48
-33 -7 -33 -7 -17 12 47 52 79 187 64 268 -5 24 -25 55 -59 93 -211 230 -310
490 -294 776 15 255 112 474 299 671 l80 85 697 0 c656 0 698 -2 737 -19z"/>
<path d="M1937 2082 c-15 -16 -17 -53 -17 -314 0 -273 1 -296 18 -311 24 -22
65 -21 85 1 15 16 17 53 17 314 0 273 -1 296 -18 311 -24 22 -65 21 -85 -1z
m61 -24 c9 -9 12 -87 12 -289 0 -233 -2 -279 -15 -289 -8 -7 -22 -10 -30 -6
-13 5 -15 46 -15 295 0 286 1 296 31 300 3 1 10 -4 17 -11z"/>
<path d="M1037 2022 c-22 -24 -22 -65 1 -85 14 -12 43 -17 124 -19 l107 -3
-125 -200 c-68 -109 -124 -207 -124 -217 0 -10 9 -27 20 -38 18 -18 33 -20
193 -20 156 0 176 2 190 18 22 24 22 65 -1 85 -14 12 -43 17 -124 19 l-107 3
125 200 c68 109 124 207 124 217 0 10 -9 27 -20 38 -18 18 -33 20 -193 20
-156 0 -176 -2 -190 -18z m366 -33 c9 -14 -32 -89 -123 -229 -13 -20 -69 -112
-97 -158 -20 -34 -21 -38 -6 -54 13 -15 33 -18 112 -18 106 0 133 -9 115 -37
-10 -16 -30 -18 -160 -21 -165 -3 -194 1 -194 25 0 9 54 102 120 208 66 106
120 199 120 207 0 30 -24 38 -116 38 -51 0 -99 3 -108 6 -19 7 -21 40 -3 48 6
2 84 4 171 3 132 -2 161 -5 169 -18z"/>
<path d="M1565 1841 c-72 -32 -125 -113 -125 -191 0 -140 151 -248 275 -196
29 13 35 13 46 0 16 -20 63 -17 82 4 15 16 17 45 17 194 0 157 -2 177 -18 191
-23 21 -65 22 -81 3 -11 -13 -17 -13 -46 0 -46 19 -102 17 -150 -5z m155 -29
c18 -7 33 -6 53 5 52 26 57 10 57 -167 0 -129 -3 -160 -15 -170 -13 -11 -20
-11 -39 -1 -19 10 -35 10 -77 1 -124 -28 -229 51 -229 170 0 126 130 210 250
162z"/>
<path d="M1575 1737 c-38 -38 -50 -74 -40 -114 3 -14 21 -41 40 -60 27 -27 41
-33 75 -33 34 0 48 6 76 34 30 30 34 40 34 86 0 46 -4 56 -34 86 -28 28 -42
34 -76 34 -34 0 -48 -6 -75 -33z m136 -26 c20 -20 29 -39 29 -61 0 -43 -47
-90 -90 -90 -43 0 -90 47 -90 90 0 22 9 41 29 61 20 20 39 29 61 29 22 0 41
-9 61 -29z"/>
<path d="M2225 1841 c-136 -63 -166 -232 -61 -337 84 -85 208 -85 292 0 80 79
85 199 11 283 -61 69 -161 92 -242 54z m130 -22 c55 -16 92 -44 115 -89 70
-137 -58 -291 -208 -250 -175 46 -176 289 -2 338 47 14 49 14 95 1z"/>
<path d="M2235 1737 c-38 -38 -50 -74 -40 -114 3 -14 21 -41 40 -60 27 -27 41
-33 75 -33 34 0 48 6 76 34 30 30 34 40 34 86 0 46 -4 56 -34 86 -28 28 -42
34 -76 34 -34 0 -48 -6 -75 -33z m136 -26 c20 -20 29 -39 29 -61 0 -43 -47
-90 -90 -90 -43 0 -90 47 -90 90 0 22 9 41 29 61 20 20 39 29 61 29 22 0 41
-9 61 -29z"/>
</g>
</svg>
